<?xml version="1.0" standalone="no"?>
<!DOCTYPE svg PUBLIC "-//W3C//DTD SVG 20010904//EN"
 "http://www.w3.org/TR/2001/REC-SVG-20010904/DTD/svg10.dtd">
<svg version="1.0" xmlns="http://www.w3.org/2000/svg"
 width="50.000000pt" height="50.000000pt" viewBox="0 0 50.000000 50.000000"
 preserveAspectRatio="xMidYMid meet">
<metadata>
Created by potrace 1.16, written by Peter Selinger 2001-2019
</metadata>
<g transform="translate(0.000000,50.000000) scale(0.100000,-0.100000)"
fill="#000000" stroke="none">
<path d="M203 479 c-114 -21 -186 -109 -186 -229 -1 -137 96 -232 236 -232
178 0 287 188 202 352 -41 80 -152 128 -252 109z m37 -69 c0 -38 -2 -40 -30
-40 -35 0 -37 11 -9 51 28 40 39 36 39 -11z m59 11 c28 -40 26 -51 -9 -51 -28
0 -30 2 -30 40 0 47 11 51 39 11z m-142 -11 c-12 -32 -15 -34 -35 -21 -11 6
-7 13 14 30 34 27 34 27 21 -9z m222 -3 c9 -12 8 -16 -5 -21 -9 -4 -18 -5 -18
-4 -1 2 -7 16 -14 31 -11 25 -10 27 6 18 10 -6 24 -16 31 -24z m-251 -101 l3
-46 -40 0 c-35 0 -41 3 -41 21 0 12 7 36 16 54 13 28 19 32 37 26 18 -7 23
-18 25 -55z m319 -12 l6 -35 -39 3 c-38 3 -39 4 -42 46 -3 36 0 43 20 51 28
10 46 -11 55 -65z m-207 6 l0 -40 -40 0 -40 0 0 40 0 40 40 0 40 0 0 -40z
m100 0 l0 -40 -40 0 -40 0 0 40 0 40 40 0 40 0 0 -40z m-210 -105 c0 -38 -4
-47 -22 -54 -28 -10 -46 12 -55 64 l-6 35 42 0 41 0 0 -45z m110 5 l0 -40 -40
0 -40 0 0 40 0 40 40 0 40 0 0 -40z m100 0 l0 -40 -40 0 -40 0 0 40 0 40 40 0
40 0 0 -40z m107 5 c-9 -52 -27 -74 -54 -64 -19 7 -23 16 -23 54 l0 45 41 0
42 0 -6 -35z m-207 -115 c0 -47 -11 -51 -39 -11 -28 40 -26 51 9 51 28 0 30
-2 30 -40z m80 29 c0 -15 -39 -69 -51 -69 -5 0 -9 18 -9 40 0 38 2 40 30 40
17 0 30 -5 30 -11z m-163 -29 c12 -32 6 -32 -30 -2 -13 12 -15 17 -5 24 20 12
23 10 35 -22z m221 22 c10 -7 8 -12 -5 -24 -36 -30 -42 -30 -30 2 12 32 15 34
35 22z"/>
</g>
</svg>
